<?xml version="1.0" standalone="no"?>
<!DOCTYPE svg PUBLIC "-//W3C//DTD SVG 20010904//EN"
 "http://www.w3.org/TR/2001/REC-SVG-20010904/DTD/svg10.dtd">
<svg version="1.0" xmlns="http://www.w3.org/2000/svg"
 width="74.000000pt" height="69.000000pt" viewBox="0 0 74.000000 69.000000"
 preserveAspectRatio="xMidYMid meet">

<g transform="translate(0.000000,69.000000) scale(0.100000,-0.100000)"
fill="#000000" stroke="none">
<path d="M267 543 c-4 -3 3 -17 15 -30 l22 -24 -84 -84 -85 -85 98 -98 97 -97
97 98 98 97 -115 115 c-109 110 -128 124 -143 108z m138 -153 l69 -70 -139 0
-139 0 69 70 c38 39 70 70 70 70 0 0 32 -31 70 -70z"/>
<path d="M501 212 c-26 -37 -26 -54 -3 -75 24 -22 45 -21 65 1 24 26 21 44
-12 76 l-29 27 -21 -29z"/>
</g>
</svg>
